<svg width="24" height="24" viewBox="0 0 24 24" fill="none" xmlns="http://www.w3.org/2000/svg">
<g clip-path="url(#clip0_132_1037)">
<g clip-path="url(#clip1_132_1037)">
<path d="M12.0002 24C11.7335 24 11.4935 23.8933 11.2802 23.68L3.12018 15.52C2.64018 15.04 2.28018 14.4933 2.04018 13.88C1.80018 13.2667 1.68018 12.64 1.68018 12C1.68018 11.36 1.80018 10.7333 2.04018 10.12C2.28018 9.50667 2.64018 8.96 3.12018 8.48L11.2802 0.32C11.4935 0.106667 11.7335 0 12.0002 0C12.2668 0 12.5068 0.0933342 12.7202 0.280001C12.9335 0.466667 13.0402 0.706667 13.0402 1C13.0402 1.29333 12.9335 1.52 12.7202 1.68L4.56018 9.84C3.97351 10.4267 3.68018 11.1467 3.68018 12C3.68018 12.8533 3.97351 13.5733 4.56018 14.16L12.7202 22.32C12.9335 22.48 13.0402 22.7067 13.0402 23C13.0402 23.2933 12.9335 23.5333 12.7202 23.72C12.5068 23.9067 12.2668 24 12.0002 24ZM22.0002 24C21.7335 24 21.4935 23.8933 21.2802 23.68L11.6802 14.08C11.0935 13.5467 10.8002 12.8533 10.8002 12C10.8002 11.1467 11.0935 10.4267 11.6802 9.84L21.2802 0.32C21.4935 0.106667 21.7335 0 22.0002 0C22.2668 0 22.5068 0.0933342 22.7202 0.280001C22.9335 0.466667 23.0402 0.706667 23.0402 1C23.0402 1.29333 22.9335 1.52 22.7202 1.68L13.1202 11.28C12.9068 11.4933 12.8002 11.7333 12.8002 12C12.8002 12.2667 12.9068 12.5067 13.1202 12.72L22.7202 22.32C22.9335 22.48 23.0402 22.7067 23.0402 23C23.0402 23.2933 22.9335 23.5333 22.7202 23.72C22.5068 23.9067 22.2668 24 22.0002 24Z" fill="white"/>
</g>
</g>
<defs>
<clipPath id="clip0_132_1037">
<rect width="24" height="24" fill="white"/>
</clipPath>
<clipPath id="clip1_132_1037">
<rect width="24" height="24" fill="white" transform="matrix(1 0 0 -1 0 24)"/>
</clipPath>
</defs>
</svg>
