<svg width="25" height="24" viewBox="0 0 25 24" fill="none" xmlns="http://www.w3.org/2000/svg">
<g clip-path="url(#clip0_21_595)">
<path d="M12.1699 24C11.9032 24 11.6632 23.9067 11.4499 23.72C11.2365 23.5333 11.1299 23.2933 11.1299 23C11.1299 22.7067 11.2365 22.48 11.4499 22.32L19.6099 14.08C20.1965 13.5467 20.4899 12.8533 20.4899 12C20.4899 11.1467 20.1965 10.4267 19.6099 9.84L11.4499 1.68C11.2365 1.52 11.1299 1.29333 11.1299 1C11.1299 0.706667 11.2365 0.466667 11.4499 0.280001C11.6632 0.0933342 11.9032 0 12.1699 0C12.4365 0 12.6765 0.106667 12.8899 0.32L21.0499 8.48C21.5299 8.96 21.8899 9.50667 22.1299 10.12C22.3699 10.7333 22.4899 11.36 22.4899 12C22.4899 12.64 22.3699 13.2667 22.1299 13.88C21.8899 14.4933 21.5299 15.04 21.0499 15.52L12.8899 23.68C12.6765 23.8933 12.4365 24 12.1699 24ZM2.16988 24C1.90322 24 1.66322 23.9067 1.44988 23.72C1.23655 23.5333 1.12988 23.2933 1.12988 23C1.12988 22.7067 1.23655 22.48 1.44988 22.32L11.0499 12.72C11.2632 12.5067 11.3699 12.2667 11.3699 12C11.3699 11.7333 11.2632 11.4933 11.0499 11.28L1.44988 1.68C1.23655 1.52 1.12988 1.29333 1.12988 1C1.12988 0.706667 1.23655 0.466667 1.44988 0.280001C1.66322 0.0933342 1.90322 0 2.16988 0C2.43655 0 2.67655 0.106667 2.88988 0.32L12.4899 9.84C13.0232 10.4267 13.2899 11.1467 13.2899 12C13.2899 12.8533 12.9965 13.5733 12.4099 14.16L2.88988 23.68C2.67655 23.8933 2.43655 24 2.16988 24Z" fill="#153743"/>
</g>
<defs>
<clipPath id="clip0_21_595">
<rect width="24" height="24" fill="white" transform="matrix(1 0 0 -1 0.330078 24)"/>
</clipPath>
</defs>
</svg>
