<svg width="24" height="24" viewBox="0 0 24 24" fill="none" xmlns="http://www.w3.org/2000/svg">
<g clip-path="url(#clip0_208_280)">
<path d="M1.04 5.99996H23.04C23.3067 5.99996 23.5333 5.90663 23.72 5.71996C23.9067 5.53329 24 5.29329 24 4.99996C24 4.70663 23.9067 4.46663 23.72 4.27996C23.5333 4.09329 23.3067 3.99996 23.04 3.99996H1.04C0.72 3.99996 0.466667 4.09329 0.28 4.27996C0.0933333 4.46663 0 4.70663 0 4.99996C0 5.29329 0.0933333 5.53329 0.28 5.71996C0.466667 5.90663 0.693333 5.99996 0.96 5.99996H1.04ZM23.04 8.95996H9.04C8.72 9.01329 8.46667 9.13329 8.28 9.31996C8.09333 9.50663 8 9.73329 8 9.99996C8 10.2666 8.09333 10.5066 8.28 10.72C8.46667 10.9333 8.72 11.04 9.04 11.04H23.04C23.3067 10.9866 23.5333 10.8666 23.72 10.68C23.9067 10.4933 24 10.2666 24 9.99996C24 9.73329 23.9067 9.49329 23.72 9.27996C23.5333 9.06663 23.3067 8.95996 23.04 8.95996ZM23.04 18.96H9.04C8.72 18.96 8.46667 19.0666 8.28 19.28C8.09333 19.4933 8 19.7333 8 20C8 20.2666 8.09333 20.4933 8.28 20.68C8.46667 20.8666 8.72 20.96 9.04 20.96H23.04C23.3067 20.96 23.5333 20.8666 23.72 20.68C23.9067 20.4933 24 20.2666 24 20C24 19.7333 23.9067 19.5066 23.72 19.32C23.5333 19.1333 23.3067 19.04 23.04 19.04V18.96ZM23.04 14H1.04C0.72 14 0.466667 14.0933 0.28 14.28C0.0933333 14.4666 0 14.7066 0 15C0 15.2933 0.0933333 15.5333 0.28 15.72C0.466667 15.9066 0.693333 16 0.96 16H23.04C23.3067 16 23.5333 15.9066 23.72 15.72C23.9067 15.5333 24 15.2933 24 15C24 14.7066 23.9067 14.4666 23.72 14.28C23.5333 14.0933 23.3067 14 23.04 14Z" fill="#153743"/>
</g>
<defs>
<clipPath id="clip0_208_280">
<rect width="24" height="24" fill="white" transform="matrix(1 0 0 -1 0 24)"/>
</clipPath>
</defs>
</svg>
